<svg width="291" height="306" xmlns="http://www.w3.org/2000/svg" xmlns:xlink="http://www.w3.org/1999/xlink" xml:space="preserve" overflow="hidden"><defs><clipPath id="clip0"><rect x="656" y="179" width="291" height="306"/></clipPath></defs><g clip-path="url(#clip0)" transform="translate(-656 -179)"><path d="M453.346 529.372C451.842 528.765 452.109 498.564 453.623 497.982 454.259 497.74 455.315 498.027 455.973 498.621 457.042 499.591 457.379 499.591 459.201 498.644 467.111 494.516 476.035 502.905 473.471 512.061 471.608 518.718 464.617 521.987 458.746 518.947L456.676 517.878 456.676 523.014C456.676 528.873 455.878 530.396 453.346 529.372ZM465.406 515.518C471.945 512.787 470.285 501.783 463.332 501.783 458.075 501.783 456.676 503.268 456.676 508.846L456.676 513.776 459.656 515.127C463.247 516.756 462.556 516.708 465.406 515.518ZM570.945 528.774C570.223 527.909 570.331 526.977 571.518 523.755L572.974 519.799 569.158 510.484C565.119 500.622 564.664 498.494 566.451 497.807 568.096 497.174 569.078 498.637 571.96 505.99 575.426 514.844 575.22 514.835 578.693 506.356 581.927 498.446 582.732 497.295 584.535 497.985 586.354 498.685 585.998 499.967 579.965 514.405 573.105 530.832 572.907 531.143 570.945 528.774ZM377.222 519.551C376.141 518.47 376.703 490.534 377.813 490.108 380.106 489.227 380.962 491.189 380.962 497.33L380.962 503.233 388.496 503.032 396.034 502.835 396.237 496.662C396.45 490.213 397.28 488.683 399.548 490.566 401.09 491.85 401.09 518.028 399.548 519.309 397.28 521.192 396.45 519.662 396.237 513.213L396.034 507.043 388.496 506.843 380.962 506.645 380.962 512.488C380.962 518.921 379.448 521.777 377.222 519.551ZM410.405 518.441C400.96 511.988 405.962 496.917 417.272 497.766 431.386 498.828 430.454 520.006 416.292 520.015 413.732 520.019 412.059 519.57 410.405 518.441ZM418.735 515.735C425.677 513.311 423.769 501.783 416.426 501.783 409.006 501.783 407.282 512.99 414.263 515.849 416.152 516.622 416.19 516.622 418.735 515.735ZM434.49 519.532C432.299 519.103 430.279 516.689 431.278 515.69 431.86 515.105 433.084 515.105 435.969 515.684 444.352 517.366 446.563 513.318 438.561 510.932 431.183 508.735 428.858 504.047 433.059 499.843 436.274 496.627 446.862 497.079 446.862 500.434 446.862 501.932 446.855 501.932 440.778 501.789 433.192 501.614 433.107 504.909 440.638 507.119 453.62 510.929 448.048 522.188 434.49 519.532ZM479.578 519.551C478.445 518.419 479.072 498.443 480.252 497.988 482.822 497.003 483.318 498.742 483.318 508.744 483.318 518.966 482.204 522.178 479.578 519.551ZM492.432 518.616C491.198 517.382 491.03 516.279 491.03 509.498L491.03 501.783 489.278 501.783C486.775 501.783 487.099 500.517 490.473 497.076 493.905 493.577 495.056 493.323 495.365 495.994 495.559 497.67 495.956 497.969 498.392 498.275 502.584 498.799 502.454 501.344 498.214 501.646L495.237 501.865 495.237 508.824C495.237 516.333 495.54 516.838 499.766 516.326 501.407 516.129 502.158 518.498 500.739 519.398 498.898 520.562 493.911 520.095 492.432 518.616ZM506.251 518.607C500.307 513.931 505.217 506.696 514.342 506.693 517.792 506.693 518.371 506.505 518.371 505.399 518.371 502.667 516.03 501.62 510.525 501.884 504.534 502.177 503.032 500.307 507.854 498.567 513.718 496.452 520.368 498.16 521.895 502.18 524.302 508.522 522.219 522.067 519.287 519.131 518.346 518.19 517.916 518.177 515.859 519.036 512.456 520.461 508.372 520.276 506.251 518.607ZM516.094 515.118C519.987 512.742 519.332 510.198 514.819 510.198 509.123 510.198 506.594 512.443 509.272 515.127 511.031 516.883 513.2 516.883 516.094 515.118ZM529.75 519.198C528.37 517.821 528.539 490.324 529.932 489.166 532.829 486.759 533.131 488.304 532.934 504.387 532.734 520.235 532.39 521.841 529.75 519.198ZM540.573 519.551C539.441 518.419 540.064 498.443 541.247 497.988 543.801 497.009 544.313 498.755 544.313 508.477 544.313 519.503 543.356 522.334 540.573 519.551ZM553.746 518.298C552.134 516.689 552.022 516.097 552.022 509.18L552.022 501.783 550.27 501.783C547.77 501.783 548.095 500.517 551.469 497.076 554.9 493.577 556.049 493.323 556.357 495.998 556.551 497.67 556.952 497.973 559.385 498.278 563.58 498.799 563.446 501.344 559.21 501.646L556.23 501.865 556.23 508.792C556.23 516.202 556.84 517.303 560.339 516.193 561.112 515.948 562.024 516.247 562.59 516.924 565.132 519.987 556.736 521.294 553.746 518.298ZM479.091 492.992C477.816 491.456 479.046 489.51 481.292 489.51 482.685 489.51 482.968 489.863 482.968 491.615 482.968 494.077 480.668 494.894 479.091 492.992ZM540.373 493.059C539.683 491.256 540.433 489.513 541.995 489.29 543.97 489.007 545.518 491.564 544.275 493.062 543.197 494.363 540.872 494.36 540.373 493.056ZM442.094 492.525C441.474 491.905 441.255 485.789 441.255 469.366L441.255 447.046 443.09 446.21C444.721 445.465 445.09 445.567 446.445 447.141L447.968 448.913 451.031 447.294C462.744 441.096 475.437 452.115 472.772 466.172 470.692 477.141 458.759 482.777 450.086 476.887L447.561 475.173 447.561 483.168C447.561 492.522 445.545 495.979 442.094 492.525ZM462.728 471.76C466.786 469.591 468.453 460.343 465.578 455.954 462.035 450.544 453.998 449.883 448.814 454.577 446.423 456.743 447.008 469.032 449.593 470.87 453.318 473.525 458.75 473.891 462.728 471.76ZM407.028 478.048C402.655 476.486 398.839 473.102 397.016 469.168 394.955 464.732 395.016 435.559 397.086 434.452 401.128 432.286 402.143 436.475 401.936 454.44 401.803 465.975 402.178 467.667 405.46 470.434 410.93 475.039 419.469 474.352 423.572 468.978L425.48 466.478 425.665 452.042C425.906 433.635 426.409 431.917 430.693 434.919 432.509 436.192 432.871 462.738 431.138 467.594 427.862 476.779 416.849 481.553 407.028 478.048ZM487.665 477.797C487.051 477.186 486.822 471.926 486.822 458.533L486.822 440.113 479.711 439.913C471.996 439.696 470.107 438.764 471.83 436.029 473.121 433.981 506.76 433.806 507.847 435.842 509.59 439.095 507.819 440.062 500.119 440.062L493.132 440.062 493.132 457.993C493.132 469.013 492.852 476.448 492.407 477.281 491.596 478.798 488.953 479.085 487.665 477.797ZM529.442 477.412C528.857 476.738 526.557 471.763 524.337 466.363 522.118 460.963 518.603 452.475 516.533 447.501 512.414 437.62 512.046 435.587 514.164 434.452 516.981 432.944 517.964 434.592 525.454 453.356 529.464 463.399 532.902 471.617 533.093 471.614 533.287 471.614 535.151 467.276 537.237 461.974 548.333 433.759 548.871 432.763 552.022 434.452 554.236 435.635 553.88 436.894 545.62 457.096 536.922 478.366 536.766 478.636 533.093 478.636 531.503 478.636 530.097 478.165 529.442 477.412ZM527.836 413.201 508.207 400.435 453.639 400.085 399.074 399.732 397.115 397.541C396.037 396.336 395.025 394.952 394.863 394.469 394.637 393.788 392.109 393.998 383.735 395.394 345.056 401.828 348.828 403.609 346.659 377.912 345.88 368.699 344.608 354.371 343.835 346.077 342.528 332.077 340.238 306.453 337.818 278.747 337.261 272.381 336.046 258.654 335.118 248.24 333.276 227.577 333.343 226.776 337.064 224.782 338.905 223.797 346.328 223.991 389.374 226.151 406.761 227.023 439.435 228.566 478.76 230.372 535.596 232.983 531.083 232.259 532.148 238.931 532.594 241.694 532.632 241.726 535.125 241.334 536.515 241.116 540.805 240.446 544.663 239.845 548.518 239.245 556.462 237.968 562.314 237.007 574.743 234.968 577.102 234.876 579.208 236.353L580.766 237.445 580.766 315.926C580.766 375.279 580.562 394.857 579.93 396.247 578.349 399.713 576.504 400.085 560.768 400.085L546.304 400.085 546.689 402.013C546.902 403.075 547.404 407.887 547.808 412.708 548.212 417.529 548.673 422.503 548.839 423.756 549.271 427.131 549.204 427.096 527.836 413.201ZM418.013 389.533C449.12 384.409 474.985 380.186 497.165 376.599 507.863 374.872 518.196 373.151 520.124 372.776 522.051 372.404 527.241 371.564 531.655 370.906 538.305 369.92 539.969 369.424 541.39 367.999 543.477 365.913 543.779 371.093 537.654 303.996 535.367 278.973 533.163 254.48 532.619 248.039 532.069 241.542 533.436 241.823 516.113 244.652 498.469 247.534 475.519 251.243 457.026 254.202 449.702 255.375 440.867 256.795 437.397 257.359 433.927 257.923 421.308 259.968 409.353 261.904 389.088 265.185 387.513 265.543 386.044 267.214 384.158 269.356 384.174 267.751 385.844 287.163 386.588 295.842 387.838 310.519 388.62 319.776 389.403 329.034 390.21 337.872 390.414 339.414 390.614 340.96 391.403 349.639 392.166 358.703 392.926 367.77 393.861 378.341 394.246 382.199 394.631 386.057 394.955 390.08 394.965 391.142 394.984 393.54 392.716 393.696 418.013 389.533ZM445.443 342.54C444.648 341.052 444.638 300.486 445.434 295.597 446.044 291.839 447.027 292.13 460.947 300.174 468.046 304.277 477.374 309.665 481.673 312.147 493.282 318.844 494.182 317.395 469.649 331.505 444.6 345.912 446.728 344.942 445.446 342.54Z" fill="#FFFFFF" fill-rule="evenodd" transform="matrix(1 0 0 1.00121 322.066 -45.4849)"/></g></svg>